<?xml version="1.0" encoding="utf-8"?>
<!-- Generator: Adobe Illustrator 18.1.1, SVG Export Plug-In . SVG Version: 6.00 Build 0)  -->
<svg version="1.1" id="Layer_1" xmlns="http://www.w3.org/2000/svg" xmlns:xlink="http://www.w3.org/1999/xlink" x="0px" y="0px"
	 viewBox="0 0 141.7 279.3" enable-background="new 0 0 141.7 279.3" xml:space="preserve">
<g>
	<path fill-rule="evenodd" clip-rule="evenodd" fill="#00A664" d="M3.5,0h134.7c1.9,0,3.5,1.6,3.5,3.5v272.3c0,1.9-1.6,3.5-3.5,3.5
		H3.5c-1.9,0-3.5-1.6-3.5-3.5V3.5C0,1.6,1.6,0,3.5,0L3.5,0z"/>
	<polygon fill="#FFFFFF" points="35.4,185.2 39,185.2 39,177.3 46.2,177.3 46.2,185.2 49.9,185.2 49.9,167.2 46.2,167.2 46.2,174.5 
		39,174.5 39,167.2 35.4,167.2 35.4,185.2 	"/>
	<polygon fill="#FFFFFF" points="53.5,185.2 57.1,185.2 57.1,167.2 53.5,167.2 53.5,185.2 	"/>
	<path fill="#FFFFFF" d="M71,167.5c-1.3-0.4-2.8-0.6-4.3-0.6c-3.2,0-6.3,1.5-6.3,5.5c0,6,7.9,4.5,7.9,8c0,1.6-1.8,2.3-3.2,2.3
		c-1.4,0-2.8-0.4-4.1-1.1l-0.3,3.3c1.8,0.4,2.7,0.7,4.6,0.7c3.6,0,6.8-1.5,6.8-5.4c0-6-7.9-4.7-7.9-7.8c0-2,1.6-2.5,2.8-2.5
		c1.3,0,2.5,0.3,3.7,0.8L71,167.5L71,167.5z"/>
	<path fill-rule="evenodd" clip-rule="evenodd" fill="#FFFFFF" d="M84.5,178.3h-5.3l2.6-7.4h0.1L84.5,178.3L84.5,178.3z M72.9,185.2
		h3.7l1.6-4.1h7.3l1.5,4.1h4l-7.1-18H80L72.9,185.2L72.9,185.2z"/>
	<path fill-rule="evenodd" clip-rule="evenodd" fill="#FFFFFF" d="M96.5,170h1.2c1.8,0,3.8,0.2,3.8,2.3c0,2.2-2,2.5-3.8,2.5h-1.2
		V170L96.5,170z M92.9,185.2h3.6v-7.5h1.2c1.5,0,2,0.5,2.5,1.9l2.2,5.6h4l-2.9-7c-0.3-0.8-0.9-1.8-1.9-1.9v-0.1
		c2.3-0.3,3.7-2.1,3.7-4.2c0-5-4.6-4.9-8.5-4.9h-3.9V185.2L92.9,185.2z"/>
	<path fill="#FFFFFF" d="M32.2,194c-1.3-0.4-2.8-0.6-4.3-0.6c-3.2,0-6.3,1.5-6.3,5.5c0,6,7.9,4.5,7.9,8c0,1.6-1.8,2.3-3.2,2.3
		c-1.4,0-2.8-0.4-4.1-1.1l-0.3,3.3c1.8,0.4,2.7,0.7,4.6,0.7c3.6,0,6.8-1.5,6.8-5.4c0-6-7.9-4.7-7.9-7.8c0-2,1.6-2.5,2.8-2.5
		c1.3,0,2.5,0.3,3.7,0.8L32.2,194L32.2,194z"/>
	<path fill="#FFFFFF" d="M49.2,208.4c-0.9,0.4-2.5,0.7-3.9,0.7c-3.8,0-6.1-2.8-6.1-6.4c0-3.7,2.3-6.5,6-6.5c1.3,0,2.5,0.2,3.9,1
		l0.3-3c-1.3-0.5-2.9-0.7-4.1-0.7c-6.1,0-9.9,3.5-9.9,9.6c0,6.1,4.1,9,9.9,9c1.4,0,2.8-0.3,4.1-0.6L49.2,208.4L49.2,208.4z"/>
	<polygon fill="#FFFFFF" points="51.8,211.7 55.4,211.7 55.4,203.8 62.6,203.8 62.6,211.7 66.2,211.7 66.2,193.7 62.6,193.7 
		62.6,201 55.4,201 55.4,193.7 51.8,193.7 51.8,211.7 	"/>
	<path fill-rule="evenodd" clip-rule="evenodd" fill="#FFFFFF" d="M69.3,202.7c0,5.5,3,9.4,8.8,9.4c5.7,0,8.8-3.9,8.8-9.4
		c0-5.4-3.2-9.3-8.8-9.3C72.4,193.4,69.3,197.1,69.3,202.7L69.3,202.7z M73,202.7c0-3.2,1.5-6.4,5.1-6.4c3.6,0,5.1,3.3,5.1,6.4
		c0,3.3-1.4,6.5-5.1,6.5C74.4,209.2,73,205.9,73,202.7L73,202.7z"/>
	<path fill-rule="evenodd" clip-rule="evenodd" fill="#FFFFFF" d="M88.8,202.7c0,5.5,3,9.4,8.8,9.4c5.7,0,8.8-3.9,8.8-9.4
		c0-5.4-3.2-9.3-8.8-9.3C91.9,193.4,88.8,197.1,88.8,202.7L88.8,202.7z M92.6,202.7c0-3.2,1.5-6.4,5.1-6.4s5.1,3.3,5.1,6.4
		c0,3.3-1.4,6.5-5.1,6.5C94,209.2,92.6,205.9,92.6,202.7L92.6,202.7z"/>
	<polygon fill="#FFFFFF" points="109.5,211.7 120.2,211.7 120.2,208.9 113.2,208.9 113.2,193.7 109.5,193.7 109.5,211.7 	"/>
	
		<line fill="none" stroke="#86CCA5" stroke-width="0.7501" stroke-linecap="round" stroke-linejoin="round" stroke-miterlimit="2.6131" x1="19.8" y1="223.9" x2="121.9" y2="223.9"/>
	<path fill-rule="evenodd" clip-rule="evenodd" fill="#FFFFFF" d="M32.8,98c0.1,0.1,30.3-8.3,30.3-8.3s1.3-0.4,0.8,0.6
		c-0.5,1-6.4,12-20.3,30.8c-7.4,10.1,1.5,24.8,1.5,24.8s23.3-33.9,25.7-36.8c0,0,0.4-1.7,3.9-0.3c3.5,1.4,39.8,18.5,39.8,18.5
		s-0.8-19.1-10.6-22.8c-9.8-3.7-23.9-8.7-32.5-15.8c0,0-1.3-0.6,0.2-0.8l30.4-8.8c0,0-0.6-13.1-6.2-19.7l-30.2,7.9
		c0,0-1.4-0.2-1.1,4.3c0.4,4.4,0.8,5.9-0.7,6.2c-1.5,0.3-2.4-1.8-3.6-5c-1.1-3.2-2.4-3.3-2.9-3.3l-30.3,8.1
		C27.2,77.7,27.2,89.1,32.8,98L32.8,98z M36.9,61.6c-4.8-7.4-1-18.3,8.4-24.4c9.4-6.1,21-5.1,25.7,2.2c4.8,7.4,1,18.3-8.4,24.4
		C53.2,69.9,41.7,68.9,36.9,61.6L36.9,61.6z"/>
	<polygon fill="#FFFFFF" points="25,252.4 23.2,252.4 23.2,239.2 25,239.2 25,252.4 	"/>
	<path fill="#FFFFFF" d="M37.1,249.1c0-0.6-0.2-1.1-0.5-1.5c-0.3-0.4-1-0.7-1.8-1.1c-1.3-0.4-2.2-0.9-2.9-1.5c-0.7-0.6-1-1.4-1-2.4
		c0-1,0.4-1.9,1.1-2.6c0.7-0.7,1.7-1,2.9-1c1.2,0,2.2,0.4,3,1.2c0.7,0.8,1.1,1.7,1.1,2.8l0,0.1h-1.8c0-0.8-0.2-1.4-0.6-1.9
		c-0.4-0.5-1-0.7-1.7-0.7c-0.7,0-1.2,0.2-1.6,0.6c-0.4,0.4-0.6,0.9-0.6,1.5c0,0.6,0.2,1,0.6,1.4c0.4,0.4,1.1,0.7,2,1
		c1.2,0.4,2.1,0.9,2.7,1.5c0.6,0.6,0.9,1.5,0.9,2.5c0,1.1-0.4,1.9-1.1,2.6c-0.7,0.6-1.7,1-2.9,1c-1.2,0-2.2-0.3-3.1-1
		c-0.9-0.7-1.3-1.7-1.3-3l0-0.1h1.8c0,0.9,0.2,1.6,0.7,2c0.5,0.4,1.1,0.7,1.9,0.7c0.7,0,1.2-0.2,1.6-0.6
		C37,250.3,37.1,249.8,37.1,249.1L37.1,249.1z"/>
	<polygon fill="#FFFFFF" points="52,240.6 48.6,240.6 48.6,252.4 46.8,252.4 46.8,240.6 43.4,240.6 43.4,239.2 52,239.2 52,240.6 	
		"/>
	<path fill="#FFFFFF" d="M63,249.1h-4.2l-1,3.3H56l4.1-13.2h1.8l4,13.2H64L63,249.1L63,249.1z M59.2,247.6h3.4l-1.7-5.8h-0.1
		L59.2,247.6L59.2,247.6z"/>
	<polygon fill="#FFFFFF" points="79.5,252.4 77.6,252.4 72.6,242.6 72.6,242.6 72.6,252.4 70.7,252.4 70.7,239.2 72.6,239.2 
		77.6,249 77.6,249 77.6,239.2 79.5,239.2 79.5,252.4 	"/>
	<path fill="#FFFFFF" d="M85.5,252.4v-13.2h3.7c1.2,0,2.2,0.3,2.9,0.9c0.7,0.6,1,1.5,1,2.7c0,0.6-0.2,1.2-0.5,1.7
		c-0.3,0.5-0.8,0.8-1.3,1.1c0.7,0.2,1.3,0.5,1.6,1.1c0.4,0.6,0.6,1.3,0.6,2.1c0,1.2-0.3,2.1-1,2.8c-0.7,0.6-1.6,1-2.8,1H85.5
		L85.5,252.4z M87.3,246.3v4.8h2.4c0.6,0,1.2-0.2,1.5-0.6c0.4-0.4,0.5-1,0.5-1.7c0-0.7-0.2-1.3-0.5-1.8c-0.3-0.4-0.8-0.7-1.4-0.7
		H87.3L87.3,246.3z M87.3,244.9h2c0.6,0,1.1-0.2,1.4-0.5c0.3-0.4,0.5-0.9,0.5-1.6c0-0.7-0.2-1.3-0.5-1.6c-0.4-0.4-0.9-0.5-1.6-0.5
		h-1.8V244.9L87.3,244.9z"/>
	<path fill="#FFFFFF" d="M107.2,239.2v9.2c0,1.4-0.4,2.4-1.2,3.1c-0.8,0.7-1.8,1.1-3.1,1.1c-1.2,0-2.3-0.4-3-1.1
		c-0.8-0.7-1.2-1.8-1.2-3.1v-9.2h1.8v9.2c0,0.9,0.2,1.7,0.6,2.1c0.4,0.5,1,0.7,1.7,0.7c0.8,0,1.3-0.2,1.8-0.7
		c0.4-0.5,0.6-1.2,0.6-2.2v-9.2H107.2L107.2,239.2z"/>
	<polygon fill="#FFFFFF" points="114.8,251 120,251 120,252.4 113,252.4 113,239.2 114.8,239.2 114.8,251 	"/>
</g>
</svg>
