<?xml version="1.0" encoding="utf-8"?>
<!-- Generator: Adobe Illustrator 18.1.1, SVG Export Plug-In . SVG Version: 6.00 Build 0)  -->
<svg version="1.1" id="Layer_1" xmlns="http://www.w3.org/2000/svg" xmlns:xlink="http://www.w3.org/1999/xlink" x="0px" y="0px"
	 viewBox="0 0 141.7 279.3" enable-background="new 0 0 141.7 279.3" xml:space="preserve">
<g>
	<path fill-rule="evenodd" clip-rule="evenodd" fill="#00A664" d="M3.5,0h134.7c1.9,0,3.5,1.6,3.5,3.5v272.3c0,1.9-1.6,3.5-3.5,3.5
		H3.5c-1.9,0-3.5-1.6-3.5-3.5V3.5C0,1.6,1.6,0,3.5,0L3.5,0z"/>
	
		<line fill="none" stroke="#86CCA5" stroke-width="0.7501" stroke-linecap="round" stroke-linejoin="round" stroke-miterlimit="2.6131" x1="12.9" y1="223.9" x2="128.8" y2="223.9"/>
	<path fill-rule="evenodd" clip-rule="evenodd" fill="#FFFFFF" d="M32.8,98c0.1,0.1,30.3-8.3,30.3-8.3s1.3-0.4,0.8,0.6
		c-0.5,1-6.4,12-20.3,30.8c-7.4,10.1,1.5,24.8,1.5,24.8s23.3-33.9,25.7-36.8c0,0,0.4-1.7,3.9-0.3c3.5,1.4,39.8,18.5,39.8,18.5
		s-0.8-19.1-10.6-22.8c-9.8-3.7-23.9-8.7-32.5-15.8c0,0-1.3-0.6,0.2-0.8l30.4-8.8c0,0-0.6-13.1-6.2-19.7l-30.2,7.9
		c0,0-1.4-0.2-1.1,4.3c0.4,4.4,0.8,5.9-0.7,6.2c-1.5,0.3-2.4-1.8-3.6-5c-1.1-3.2-2.4-3.3-2.9-3.3l-30.3,8.1
		C27.2,77.7,27.2,89.1,32.8,98L32.8,98z M36.9,61.6c-4.8-7.4-1-18.3,8.4-24.4c9.4-6.1,21-5.1,25.7,2.2c4.8,7.4,1,18.3-8.4,24.4
		C53.2,69.9,41.7,68.9,36.9,61.6L36.9,61.6z"/>
	<path fill="#FFFFFF" d="M25,252.4h-1.8v-13.2H25V252.4L25,252.4z M25.1,237.8h-2V236h2V237.8L25.1,237.8z"/>
	<path fill="#FFFFFF" d="M37.1,249.1c0-0.6-0.2-1.1-0.5-1.5c-0.3-0.4-1-0.7-1.8-1.1c-1.3-0.4-2.2-0.9-2.9-1.5c-0.7-0.6-1-1.4-1-2.4
		c0-1,0.4-1.9,1.1-2.6c0.7-0.7,1.7-1,2.9-1c1.2,0,2.2,0.4,3,1.2c0.7,0.8,1.1,1.7,1.1,2.8l0,0.1h-1.8c0-0.8-0.2-1.4-0.6-1.9
		c-0.4-0.5-1-0.7-1.7-0.7c-0.7,0-1.2,0.2-1.6,0.6c-0.4,0.4-0.6,0.9-0.6,1.5c0,0.6,0.2,1,0.6,1.4c0.4,0.4,1.1,0.7,2,1
		c1.2,0.4,2.1,0.9,2.7,1.5c0.6,0.6,0.9,1.5,0.9,2.5c0,1.1-0.4,1.9-1.1,2.6c-0.7,0.6-1.7,1-2.9,1c-1.2,0-2.2-0.3-3.1-1
		c-0.9-0.7-1.3-1.7-1.3-3l0-0.1h1.8c0,0.9,0.2,1.6,0.7,2c0.5,0.4,1.1,0.7,1.9,0.7c0.7,0,1.2-0.2,1.6-0.6
		C37,250.3,37.1,249.8,37.1,249.1L37.1,249.1z"/>
	<polygon fill="#FFFFFF" points="52,240.6 48.6,240.6 48.6,252.4 46.8,252.4 46.8,240.6 43.4,240.6 43.4,239.2 52,239.2 52,240.6 	
		"/>
	<path fill="#FFFFFF" d="M63,249.1h-4.2l-1,3.3H56l4.1-13.2h1.8l4,13.2H64L63,249.1L63,249.1z M59.2,247.6h3.4l-1.7-5.8h-0.1
		L59.2,247.6L59.2,247.6z"/>
	<polygon fill="#FFFFFF" points="79.5,252.4 77.6,252.4 72.6,242.6 72.6,242.6 72.6,252.4 70.7,252.4 70.7,239.2 72.6,239.2 
		77.6,249 77.6,249 77.6,239.2 79.5,239.2 79.5,252.4 	"/>
	<path fill="#FFFFFF" d="M85.5,252.4v-13.2h3.7c1.2,0,2.2,0.3,2.9,0.9c0.7,0.6,1,1.5,1,2.7c0,0.6-0.2,1.2-0.5,1.7
		c-0.3,0.5-0.8,0.8-1.3,1.1c0.7,0.2,1.3,0.5,1.6,1.1c0.4,0.6,0.6,1.3,0.6,2.1c0,1.2-0.3,2.1-1,2.8c-0.7,0.6-1.6,1-2.8,1H85.5
		L85.5,252.4z M87.3,246.3v4.8h2.4c0.6,0,1.2-0.2,1.5-0.6c0.4-0.4,0.5-1,0.5-1.7c0-0.7-0.2-1.3-0.5-1.8c-0.3-0.4-0.8-0.7-1.4-0.7
		H87.3L87.3,246.3z M87.3,244.9h2c0.6,0,1.1-0.2,1.4-0.5c0.3-0.4,0.5-0.9,0.5-1.6c0-0.7-0.2-1.3-0.5-1.6c-0.4-0.4-0.9-0.5-1.6-0.5
		h-1.8V244.9L87.3,244.9z"/>
	<path fill="#FFFFFF" d="M107.2,239.2v9.2c0,1.4-0.4,2.4-1.2,3.1c-0.8,0.7-1.8,1.1-3.1,1.1c-1.2,0-2.3-0.4-3-1.1
		c-0.8-0.7-1.2-1.8-1.2-3.1v-9.2h1.8v9.2c0,0.9,0.2,1.7,0.6,2.1c0.4,0.5,1,0.7,1.7,0.7c0.8,0,1.3-0.2,1.8-0.7
		c0.4-0.5,0.6-1.2,0.6-2.2v-9.2H107.2L107.2,239.2z"/>
	<polygon fill="#FFFFFF" points="114.8,251 120,251 120,252.4 113,252.4 113,239.2 114.8,239.2 114.8,251 	"/>
	<path fill="#FFFFFF" d="M93,185.4v-18.1h3.9c3.9,0,8.5-0.1,8.5,4.9c0,2.1-1.4,3.9-3.7,4.2c1,0.1,1.6,1.1,1.9,1.9l2.9,7.1h-4.1
		l-2.2-5.7c-0.5-1.4-1-1.9-2.5-1.9h-1.2v7.5H93L93,185.4z M96.6,170.1v4.9h1.2c1.8,0,3.8-0.3,3.8-2.5c0-2.2-2-2.4-3.8-2.4H96.6
		L96.6,170.1z"/>
	<path fill="#FFFFFF" d="M72.9,185.4l7.1-18.1h4.1l7.1,18.1h-4l-1.6-4.2h-7.4l-1.6,4.2H72.9L72.9,185.4z M84.6,178.4l-2.6-7.5
		l-2.7,7.5H84.6L84.6,178.4z"/>
	<path fill="#FFFFFF" d="M71,167.6l-0.3,3c-1.1-0.5-2.4-0.8-3.7-0.8c-1.2,0-2.9,0.5-2.9,2.5c0,3.1,8,1.8,8,7.9c0,4-3.1,5.5-6.8,5.5
		c-2,0-2.9-0.3-4.7-0.7l0.3-3.3c1.2,0.7,2.7,1.1,4.1,1.1c1.4,0,3.2-0.7,3.2-2.3c0-3.5-8-2-8-8c0-4.1,3.1-5.5,6.3-5.5
		C68.2,166.9,69.7,167.1,71,167.6L71,167.6z"/>
	<path fill="#FFFFFF" d="M52.5,185.4h3.6H52.5z"/>
	<polygon fill="#FFFFFF" points="57.3,185.4 53.7,185.4 53.7,167.2 57.3,167.2 57.3,185.4 	"/>
	<polygon fill="#FFFFFF" points="57,166.5 54,166.5 54,163.5 57,163.5 57,166.5 	"/>
	<polygon fill="#FFFFFF" points="35.2,185.4 35.2,167.2 38.9,167.2 38.9,174.6 46.1,174.6 46.1,167.2 49.8,167.2 49.8,185.4 
		46.1,185.4 46.1,177.4 38.9,177.4 38.9,185.4 35.2,185.4 	"/>
	<path fill="#FFFFFF" d="M125.7,211.7h3.6H125.7z"/>
	<polygon fill="#FFFFFF" points="129,211.7 125.4,211.7 125.4,193.6 129,193.6 129,211.7 	"/>
	<polygon fill="#FFFFFF" points="78.6,211.7 78.6,193.6 82.3,193.6 82.3,208.8 89.3,208.8 89.3,211.7 78.6,211.7 	"/>
	<polygon fill="#FFFFFF" points="65.9,211.7 65.9,193.6 69.6,193.6 69.6,208.8 76.6,208.8 76.6,211.7 65.9,211.7 	"/>
	<path fill="#FFFFFF" d="M48.5,205.1v-11.6h3.6V204c0,3.1,1,5.1,3.8,5.1c2.8,0,3.8-2,3.8-5.1v-10.5h3.6v11.6c0,4.9-2.8,6.9-7.4,6.9
		C51.2,212,48.5,210,48.5,205.1L48.5,205.1z"/>
	<polygon fill="#FFFFFF" points="32.4,211.7 32.4,193.6 36,193.6 36,201.4 42.6,193.6 47.1,193.6 39.6,202.1 47.4,211.7 42.6,211.7 
		36.1,203.3 36,211.7 32.4,211.7 	"/>
	<path fill="#FFFFFF" d="M12.4,202.6c0-5.6,3.1-9.3,8.9-9.3c5.7,0,8.9,3.8,8.9,9.3c0,5.5-3.1,9.4-8.9,9.4
		C15.5,212,12.4,208.1,12.4,202.6L12.4,202.6z M16.2,202.6c0,3.3,1.4,6.6,5.1,6.6c3.7,0,5.1-3.3,5.1-6.6c0-3.2-1.5-6.5-5.1-6.5
		C17.7,196.1,16.2,199.4,16.2,202.6L16.2,202.6z"/>
	<path fill="#FFFFFF" d="M90.3,211.7l7.1-18.1h4.1l7.1,18.1h-4l-1.6-4.2h-7.4l-1.6,4.2H90.3L90.3,211.7z M102,204.7l-2.6-7.5
		l-2.7,7.5H102L102,204.7z"/>
	<path fill="#FFFFFF" d="M109.8,211.7v-18.1h3.9c3.9,0,8.5-0.1,8.5,4.9c0,2.1-1.4,3.9-3.7,4.2c1,0.1,1.6,1.1,1.9,1.9l2.9,7.1h-4.1
		l-2.2-5.7c-0.5-1.4-1-1.9-2.5-1.9h-1.2v7.5H109.8L109.8,211.7z M113.4,196.4v4.9h1.2c1.8,0,3.8-0.3,3.8-2.5c0-2.2-2-2.4-3.8-2.4
		H113.4L113.4,196.4z"/>
</g>
</svg>
